<svg xmlns="http://www.w3.org/2000/svg" viewBox="0 0 64 64" width="64" height="64" fill="none" stroke="currentColor" stroke-width="4" stroke-linecap="round" stroke-linejoin="round">
  <path d="M14 8 h36 a4 4 0 0 1 4 4 v40 a4 4 0 0 1 -4 4 h-36 a4 4 0 0 1 -4 -4 v-40 a4 4 0 0 1 4 -4 z"/>
  <path d="M10 24 H54 M10 40 H54"/>
  <circle cx="18" cy="16" r="2.5" fill="currentColor" stroke="none"/>
  <circle cx="18" cy="32" r="2.5" fill="currentColor" stroke="none"/>
  <circle cx="18" cy="48" r="2.5" fill="currentColor" stroke="none"/>
  <path d="M28 16 H46 M28 32 H46 M28 48 H46"/>
</svg>
